<?xml version="1.0" encoding="iso-8859-1"?>
<!-- Generator: Adobe Illustrator 19.0.0, SVG Export Plug-In . SVG Version: 6.00 Build 0)  -->
<svg version="1.1" id="Capa_1" xmlns="http://www.w3.org/2000/svg" xmlns:xlink="http://www.w3.org/1999/xlink" x="0px" y="0px"
	 viewBox="0 0 428.408 428.408" style="enable-background:new 0 0 428.408 428.408;" xml:space="preserve">
<g>
	<g>
		<path style="fill:#00EFD1;" d="M417.437,224.661v105.012c0,17.89-14.502,32.392-32.392,32.392H97.698
			c-17.976,0.002-32.629-14.418-32.914-32.392V224.661H417.437z M377.731,295.714c0.207-14.426-11.319-26.288-25.745-26.495
			c-8.055-0.116-15.713,3.492-20.753,9.776c-9.233-11.085-25.705-12.587-36.79-3.353c-11.085,9.233-12.587,25.705-3.353,36.79
			c9.233,11.085,25.705,12.587,36.79,3.353c1.217-1.014,2.34-2.136,3.353-3.353c9.026,11.255,25.467,13.061,36.722,4.035
			C374.239,311.427,377.846,303.769,377.731,295.714z"/>
		<polygon style="fill:#00ACEA;" points="417.437,177.641 417.437,224.661 67.918,224.661 64.784,224.661 64.784,177.641 
			67.918,177.641 		"/>
		<path style="fill:#00EFD1;" d="M417.437,153.608v24.033H64.784v-24.033c0-18.178,14.736-32.914,32.914-32.914h287.347
			C403.019,120.979,417.439,135.632,417.437,153.608z"/>
		<path style="fill:#FEDB41;" d="M351.608,269.592c14.426,0.169,25.984,12,25.816,26.426c-0.169,14.426-12,25.984-26.426,25.816
			c-7.647-0.089-14.87-3.525-19.765-9.401c-9.233,11.085-25.705,12.587-36.79,3.353c-11.085-9.233-12.587-25.705-3.353-36.79
			s25.705-12.587,36.79-3.353c1.217,1.014,2.34,2.136,3.353,3.353C336.263,272.955,343.747,269.501,351.608,269.592z"/>
		<path style="fill:#00CEB4;" d="M363.102,111.812v8.882H97.698c-18.178,0-32.914,14.736-32.914,32.914v154.122h-21.42
			c-17.976,0.002-32.629-14.418-32.914-32.392V98.751c0.285-17.974,14.938-32.394,32.914-32.392h286.824
			c17.976-0.002,32.629,14.418,32.914,32.392V111.812z"/>
	</g>
	<g>
		<path style="fill:#224099;" d="M351.608,332.286c-7.279,0.08-14.401-2.112-20.376-6.269c-6.004,4.096-13.107,6.282-20.376,6.269
			c-20.198,0-36.571-16.374-36.571-36.571c0-20.198,16.374-36.571,36.571-36.571c7.183,0.062,14.219,2.046,20.376,5.747
			c6.125-3.774,13.181-5.764,20.376-5.747c20.198,0,36.571,16.374,36.571,36.571C388.18,315.912,371.806,332.286,351.608,332.286z
			 M331.233,301.984c3.051-0.126,5.973,1.238,7.837,3.657c3.158,3.631,7.727,5.725,12.539,5.747
			c8.541-0.271,15.402-7.132,15.673-15.673c0-8.656-7.017-15.673-15.673-15.673c-4.812,0.022-9.381,2.116-12.539,5.747
			c-2.001,2.241-4.834,3.562-7.837,3.657l0,0c-3.147-0.126-6.131-1.432-8.359-3.657c-2.85-3.734-7.32-5.872-12.016-5.747
			c-8.363-0.294-15.38,6.247-15.673,14.61c-0.012,0.354-0.012,0.709,0,1.064c0,8.656,7.017,15.673,15.673,15.673
			c4.696,0.125,9.166-2.013,12.016-5.747C324.952,303.205,328.033,301.858,331.233,301.984z"/>
		<path style="fill:#224099;" d="M385.045,109.723h-14.106V98.751c0.874-21.912-16.181-40.383-38.093-41.257
			c-0.886-0.035-1.772-0.041-2.658-0.017H43.363C20.296,56.61,0.894,74.607,0.027,97.674C0.013,98.033,0.004,98.392,0,98.751
			v176.065c-0.002,24.035,19.33,43.6,43.363,43.886h8.882v10.971c0,23.51,21.42,41.273,45.453,41.273h287.347
			c23.365,0.584,42.779-17.883,43.363-41.248c0-0.009,0-0.017,0.001-0.026V153.608C428.41,129.573,409.078,110.009,385.045,109.723z
			 M52.245,153.608v144.196h-8.882c-12.491-0.284-22.469-10.493-22.465-22.988V98.751c0.256-11.539,9.817-20.685,21.356-20.43
			c0.37,0.008,0.74,0.026,1.109,0.054h286.824c10.369-0.615,19.274,7.293,19.888,17.662c0.054,0.904,0.042,1.811-0.035,2.713v10.971
			H97.698C73.194,109.708,53.09,129.119,52.245,153.608z M407.51,329.674c-0.562,11.817-10.598,20.94-22.414,20.378
			c-0.017-0.001-0.034-0.002-0.051-0.002H97.698c-12.539,0-24.555-8.882-24.555-20.898V235.11H407.51V329.674z M407.51,214.212
			H73.143V188.09H407.51V214.212z M407.51,167.192H73.143v-13.584c0.828-12.946,11.583-23.014,24.555-22.988h287.347
			c12.491,0.284,22.469,10.493,22.465,22.988V167.192z"/>
	</g>
</g>
<g>
</g>
<g>
</g>
<g>
</g>
<g>
</g>
<g>
</g>
<g>
</g>
<g>
</g>
<g>
</g>
<g>
</g>
<g>
</g>
<g>
</g>
<g>
</g>
<g>
</g>
<g>
</g>
<g>
</g>
</svg>
